<svg xmlns="http://www.w3.org/2000/svg" version="1.1" width="256" height="256" viewBox="0 0 256 256" fill="#ffffff"><g transform="translate(1.4065934065934016 1.4065934065934016) scale(2.81 2.81)"><path d="M 81.253 31.093 c -1.78 0 -3.415 -1.024 -4.268 -2.673 c -0.25 -0.482 -0.511 -0.961 -0.785 -1.435 c -0.274 -0.475 -0.558 -0.94 -0.849 -1.395 c -1.002 -1.564 -1.071 -3.492 -0.181 -5.034 c 2.41 -4.177 0.974 -9.537 -3.202 -11.948 l -8.938 -5.16 c -2.022 -1.168 -4.379 -1.479 -6.637 -0.874 c -2.247 0.603 -4.127 2.04 -5.296 4.05 c -0.006 0.01 -0.012 0.019 -0.018 0.029 c -0.89 1.542 -2.537 2.454 -4.339 2.358 c -1.161 -0.056 -2.337 -0.057 -3.496 0 c -1.78 0.094 -3.438 -0.818 -4.329 -2.361 c -1.168 -2.023 -3.054 -3.471 -5.311 -4.076 c -2.258 -0.604 -4.614 -0.294 -6.637 0.874 l -8.937 5.16 c -2.023 1.168 -3.471 3.055 -4.076 5.312 c -0.604 2.257 -0.294 4.615 0.875 6.639 c 0.89 1.542 0.844 3.429 -0.121 4.928 c -0.626 0.973 -1.214 1.992 -1.748 3.027 c -0.818 1.591 -2.432 2.579 -4.215 2.579 C 3.924 31.093 0 35.017 0 39.84 v 10.32 c 0 4.822 3.924 8.746 8.748 8.747 c 0 0 0.001 0 0.001 0 c 1.778 0 3.413 1.024 4.266 2.673 c 0.249 0.481 0.51 0.96 0.784 1.434 c 0.274 0.475 0.557 0.939 0.85 1.396 c 1.001 1.563 1.071 3.491 0.181 5.032 c -2.412 4.177 -0.976 9.537 3.201 11.949 l 8.938 5.16 c 4.176 2.411 9.537 0.975 11.948 -3.202 c 0.004 -0.007 0.008 -0.014 0.012 -0.021 c 0.893 -1.531 2.547 -2.428 4.329 -2.34 c 1.153 0.056 2.329 0.056 3.496 0.001 c 1.79 -0.088 3.428 0.812 4.318 2.344 c 0.004 0.005 0.007 0.011 0.01 0.017 c 1.619 2.803 4.565 4.372 7.591 4.371 c 1.482 0 2.984 -0.377 4.358 -1.169 l 8.938 -5.16 c 4.17 -2.408 5.607 -7.755 3.213 -11.929 c -0.005 -0.008 -0.009 -0.015 -0.013 -0.022 c -0.89 -1.541 -0.844 -3.43 0.121 -4.928 c 0.631 -0.979 1.219 -1.998 1.748 -3.027 c 0.817 -1.591 2.432 -2.579 4.215 -2.579 c 4.823 0 8.747 -3.924 8.747 -8.746 V 39.84 C 90 35.017 86.076 31.093 81.253 31.093 z M 58.498 68.38 c -4.24 2.447 -8.876 3.611 -13.452 3.611 c -9.337 0 -18.43 -4.842 -23.425 -13.493 c -7.443 -12.892 -3.01 -29.435 9.881 -36.877 c 12.891 -7.443 29.435 -3.01 36.878 9.881 C 75.822 44.394 71.39 60.937 58.498 68.38 z" transform=" matrix(1 0 0 1 0 0) " stroke-linecap="round"/><path d="M 33.479 35.182 h -1.985 c -2.962 0 -5.372 2.41 -5.372 5.372 v 12.265 c 0 1.104 0.896 2 2 2 s 2 -0.896 2 -2 V 47 h 4.728 v 5.818 c 0 1.104 0.896 2 2 2 s 2 -0.896 2 -2 V 40.553 C 38.85 37.591 36.44 35.182 33.479 35.182 z M 30.122 43 v -2.447 c 0 -0.756 0.615 -1.372 1.372 -1.372 h 1.985 c 0.743 0 1.371 0.628 1.371 1.372 V 43 H 30.122 z" transform=" matrix(1 0 0 1 0 0) " stroke-linecap="round"/><path d="M 50.821 35.182 h -5.382 c -1.104 0 -2 0.896 -2 2 V 45 v 7.818 c 0 1.104 0.896 2 2 2 c 1.105 0 2 -0.896 2 -2 V 47 h 3.382 c 2.752 0 4.99 -2.238 4.99 -4.989 v -1.839 C 55.812 37.42 53.573 35.182 50.821 35.182 z M 51.812 42.011 c 0 0.545 -0.444 0.989 -0.99 0.989 h -3.383 v -3.818 h 3.383 c 0.546 0 0.99 0.444 0.99 0.99 V 42.011 z" transform=" matrix(1 0 0 1 0 0) " stroke-linecap="round"/><path d="M 61.878 35.182 c -1.104 0 -2 0.896 -2 2 v 15.637 c 0 1.104 0.896 2 2 2 s 2 -0.896 2 -2 V 37.182 C 63.878 36.077 62.982 35.182 61.878 35.182 z" transform=" matrix(1 0 0 1 0 0) " stroke-linecap="round"/></g></svg>